<svg id="Objects" xmlns="http://www.w3.org/2000/svg" viewBox="0 0 464.32 553.41"><defs><style>.cls-1{fill:#020202;}</style></defs><path class="cls-1" d="M518.91,272.05H454.14c0-13.23-10.3-24.82-25.76-31.28l39.8-61.29A17,17,0,1,0,454,162.75a16.9,16.9,0,0,0,2.82,9.37l-42,64.61a79,79,0,0,0-29.72,0l-75.46-116.2a16.75,16.75,0,1,0-11.36,7.36l73.3,112.88c-15.46,6.46-25.76,18-25.76,31.28H281.09A113.24,113.24,0,0,0,167.84,385.29V509.87a113.29,113.29,0,0,0,84.91,109.67c-.51,9.22-.76,29.16,6.64,29.16,6.54,0,17.39-15.6,23.66-25.59H517c6.27,10,17.12,25.59,23.66,25.59,7.4,0,7.15-19.94,6.64-29.16a113.29,113.29,0,0,0,84.91-109.67V385.29A113.24,113.24,0,0,0,518.91,272.05ZM495.81,557H244.94a22.25,22.25,0,0,1-22.25-22.25V360.6a22.25,22.25,0,0,1,22.25-22.25H495.81a22.25,22.25,0,0,1,22.25,22.25V534.71A22.25,22.25,0,0,1,495.81,557Zm69.59-39.53a26.33,26.33,0,1,1,26.33-26.33A26.33,26.33,0,0,1,565.4,517.43Zm0-102a26.34,26.34,0,1,1,26.33-26.34A26.33,26.33,0,0,1,565.4,415.45Z" transform="translate(-167.84 -95.3)"/></svg>